<?xml version="1.0" encoding="UTF-8" standalone="no"?>
<!DOCTYPE svg PUBLIC "-//W3C//DTD SVG 1.1//EN" "http://www.w3.org/Graphics/SVG/1.1/DTD/svg11.dtd">
<svg version="1.1" 
  xmlns="http://www.w3.org/2000/svg" 
  xmlns:xlink="http://www.w3.org/1999/xlink" preserveAspectRatio="xMidYMid meet" viewBox="0 0 1024 1024" width="1024" height="1024">
  <defs>
    <path d="M512 992C247.08 992 32 776.92 32 512C32 247.08 247.08 32 512 32C776.92 32 992 247.08 992 512C992 776.92 776.92 992 512 992Z" id="a1NsGMDH9W"></path>
    <linearGradient id="gradientf18yfxQNS9" gradientUnits="userSpaceOnUse" x1="512" y1="32" x2="512" y2="992">
      <stop style="stop-color: rgb(48,179,255);stop-opacity: 1" offset="0%"></stop>
      <stop style="stop-color: rgb(47,134,255);stop-opacity: 1" offset="100%"></stop>
    </linearGradient>
    <path d="M277.86 673.15C277.86 673.12 277.86 673.09 277.86 673.06C277.86 639.03 277.86 366.8 277.86 332.77C277.86 317.62 283.72 303.35 294.43 292.63C305.15 281.92 319.35 275.99 334.5 275.99C368.53 275.99 640.76 275.99 674.79 275.99C706.14 276.01 731.54 301.42 731.57 332.77C731.57 353.57 731.57 519.93 731.57 540.72C731.57 551.15 740.03 559.61 750.46 559.61C760.89 559.61 769.35 551.15 769.35 540.72C769.35 519.93 769.35 353.57 769.35 332.77C769.36 280.56 727.04 238.22 674.82 238.21C674.81 238.21 674.8 238.21 674.79 238.21C640.76 238.21 368.53 238.21 334.5 238.21C282.4 238.17 240.12 280.38 240.08 332.49C240.08 332.58 240.08 332.68 240.08 332.77C240.08 366.8 240.08 639.03 240.08 673.06C239.96 725.08 282.03 767.35 334.05 767.48C334.2 767.48 334.35 767.48 334.5 767.48C355.3 767.48 521.66 767.48 542.45 767.48C552.89 767.48 561.34 759.02 561.34 748.59C561.34 738.16 552.89 729.7 542.45 729.7C500.86 729.7 355.3 729.7 334.5 729.7C303.24 729.73 277.88 704.41 277.86 673.15Z" id="c7zZBcEbOc"></path>
    <path d="M479.38 314.37L485.48 314.99L491.51 315.84L497.46 316.94L503.32 318.26L509.1 319.81L514.78 321.57L520.37 323.56L525.85 325.75L531.22 328.15L536.48 330.75L541.62 333.54L546.64 336.52L551.54 339.69L556.3 343.04L560.92 346.57L565.4 350.27L569.74 354.14L573.92 358.16L577.95 362.34L581.81 366.68L585.51 371.16L589.04 375.78L592.39 380.54L595.56 385.44L598.54 390.46L601.33 395.6L603.93 400.86L606.33 406.23L608.52 411.72L610.51 417.3L612.27 422.98L613.82 428.76L615.14 434.62L616.24 440.57L617.1 446.6L617.71 452.7L618.09 458.87L618.22 465.1L618.2 467.62L618.14 470.13L618.04 472.64L617.9 475.15L617.71 477.64L617.49 480.14L617.22 482.62L616.91 485.1L616.57 487.57L616.18 490.04L615.75 492.49L615.28 494.94L614.77 497.37L614.22 499.8L613.63 502.22L613 504.62L612.33 507.02L611.62 509.4L610.88 511.77L610.09 514.13L609.27 516.47L608.4 518.8L607.5 521.12L606.56 523.42L605.58 525.71L604.57 527.98L603.51 530.23L602.42 532.47L601.29 534.69L600.13 536.89L598.92 539.08L597.68 541.24L596.41 543.39L595.09 545.52L593.74 547.62L592.36 549.71L590.93 551.78L589.48 553.82L587.98 555.84L586.45 557.84L613.56 584.95L613.62 585.02L613.69 585.08L613.81 585.22L613.88 585.28L614 585.42L614.06 585.48L614.3 585.76L614.36 585.82L614.66 586.17L614.71 586.24L614.83 586.38L614.88 586.46L615 586.6L615.05 586.67L615.11 586.74L615.16 586.82L615.22 586.89L615.27 586.96L615.33 587.03L615.38 587.11L615.43 587.18L615.49 587.26L615.54 587.33L615.59 587.41L615.64 587.48L615.69 587.56L615.74 587.63L617.81 586.51L619.89 585.46L622 584.48L624.13 583.58L626.28 582.76L628.45 582.01L630.63 581.33L632.83 580.73L635.04 580.2L637.25 579.74L639.48 579.36L641.71 579.05L643.95 578.81L646.19 578.65L648.43 578.55L650.67 578.53L652.91 578.58L655.15 578.71L657.37 578.9L659.59 579.16L661.81 579.5L664.01 579.91L666.19 580.38L668.36 580.93L670.52 581.54L672.65 582.23L674.77 582.98L676.86 583.81L678.93 584.7L680.98 585.66L683 586.69L684.98 587.79L686.94 588.95L688.86 590.19L690.75 591.49L692.6 592.85L694.42 594.29L696.19 595.79L697.93 597.35L699.62 598.99L749 648.37L750.99 650.44L752.88 652.58L754.67 654.77L756.36 657.02L757.94 659.32L759.43 661.67L760.81 664.06L762.09 666.49L763.26 668.96L764.34 671.47L765.31 674L766.18 676.57L766.94 679.16L767.61 681.77L768.17 684.41L768.63 687.06L768.99 689.72L769.24 692.39L769.4 695.06L769.45 697.74L769.4 700.43L769.24 703.1L768.99 705.77L768.63 708.43L768.17 711.08L767.61 713.72L766.94 716.33L766.18 718.92L765.31 721.49L764.34 724.02L763.26 726.53L762.09 729L760.81 731.43L759.43 733.82L757.94 736.17L756.36 738.47L754.67 740.72L752.88 742.91L750.99 745.05L749 747.13L748.99 747.13L746.92 749.12L744.78 751.01L742.59 752.8L740.34 754.49L738.04 756.08L735.69 757.56L733.3 758.94L730.87 760.22L728.4 761.39L725.89 762.47L723.36 763.44L720.79 764.31L718.2 765.07L715.59 765.74L712.95 766.3L710.3 766.76L707.64 767.12L704.97 767.38L702.3 767.53L699.62 767.58L696.94 767.53L694.26 767.38L691.59 767.12L688.93 766.76L686.28 766.3L683.65 765.74L681.03 765.07L678.44 764.31L675.87 763.44L673.34 762.47L670.83 761.39L668.36 760.22L665.93 758.94L663.54 757.56L661.19 756.08L658.89 754.49L656.64 752.8L654.45 751.01L652.31 749.12L650.24 747.13L600.86 697.75L599.19 696.02L597.59 694.25L596.06 692.44L594.61 690.6L593.22 688.71L591.91 686.79L590.67 684.84L589.49 682.86L588.39 680.84L587.36 678.8L586.4 676.74L585.52 674.65L584.7 672.53L583.95 670.4L583.28 668.25L582.68 666.08L582.14 663.9L581.68 661.7L581.29 659.5L580.97 657.28L580.73 655.06L580.55 652.83L580.44 650.6L580.41 648.37L580.44 646.13L580.55 643.9L580.73 641.67L580.98 639.45L581.3 637.23L581.69 635.03L582.15 632.83L582.68 630.65L583.29 628.48L583.96 626.33L584.71 624.2L585.52 622.09L586.41 620L587.37 617.93L588.4 615.89L589.5 613.88L589.43 613.83L589.35 613.77L589.28 613.72L589.2 613.67L589.13 613.62L589.05 613.56L588.98 613.51L588.9 613.46L588.83 613.4L588.69 613.3L588.61 613.24L588.54 613.18L588.47 613.13L588.4 613.07L588.33 613.02L588.25 612.96L588.18 612.9L588.11 612.85L587.69 612.49L587.63 612.44L587.56 612.38L587.49 612.31L587.35 612.19L587.29 612.13L587.15 612.01L587.02 611.88L586.95 611.82L586.76 611.63L586.69 611.57L559.71 584.58L557.71 586.11L555.69 587.61L553.65 589.06L551.58 590.49L549.49 591.87L547.39 593.22L545.26 594.54L543.11 595.81L540.95 597.05L538.76 598.26L536.56 599.42L534.34 600.55L532.1 601.64L529.85 602.7L527.58 603.71L525.29 604.69L522.99 605.63L520.67 606.53L518.34 607.39L516 608.22L513.64 609L511.27 609.75L508.89 610.46L506.49 611.13L504.09 611.76L501.67 612.35L499.25 612.89L496.81 613.4L494.36 613.87L491.91 614.3L489.44 614.69L486.97 615.04L484.49 615.35L482.01 615.61L479.52 615.84L477.02 616.02L474.51 616.16L472.01 616.27L469.49 616.32L466.97 616.34L460.74 616.22L454.57 615.84L448.47 615.22L442.44 614.36L436.5 613.27L430.63 611.95L424.85 610.4L419.17 608.63L413.59 606.65L408.11 604.46L402.73 602.06L397.47 599.46L392.33 596.67L387.31 593.68L382.42 590.51L377.66 587.16L373.03 583.63L368.55 579.94L364.22 576.07L360.03 572.05L356.01 567.86L352.14 563.53L348.44 559.05L344.92 554.42L341.57 549.66L338.4 544.77L335.41 539.75L332.62 534.61L330.02 529.35L327.62 523.97L325.43 518.49L323.45 512.91L321.68 507.22L320.13 501.45L318.81 495.58L317.72 489.64L316.86 483.61L316.24 477.51L315.86 471.34L315.74 465.1L315.86 458.87L316.24 452.7L316.86 446.6L317.72 440.57L318.81 434.62L320.13 428.76L321.68 422.98L323.45 417.3L325.43 411.72L327.62 406.24L330.02 400.86L332.62 395.6L335.41 390.46L338.4 385.44L341.57 380.54L344.92 375.78L348.45 371.16L352.14 366.68L356.01 362.34L360.04 358.16L364.22 354.14L368.55 350.27L373.03 346.57L377.66 343.05L382.42 339.69L387.31 336.52L392.33 333.54L397.48 330.75L402.74 328.15L408.11 325.75L413.59 323.56L419.18 321.58L424.86 319.81L430.63 318.26L436.5 316.94L442.45 315.84L448.47 314.99L454.57 314.37L460.74 313.99L466.98 313.86L473.21 313.99L479.38 314.37ZM647.78 616.43L646.56 616.55L645.33 616.72L644.12 616.93L642.91 617.18L641.71 617.49L640.53 617.84L639.35 618.24L638.19 618.69L637.04 619.18L635.9 619.72L634.79 620.3L633.69 620.94L632.61 621.62L631.56 622.34L630.53 623.12L629.52 623.94L628.54 624.81L627.59 625.72L626.68 626.67L625.81 627.65L624.99 628.66L624.21 629.69L623.49 630.74L622.81 631.82L622.17 632.92L621.59 634.03L621.05 635.17L620.56 636.32L620.11 637.48L619.71 638.66L619.36 639.84L619.05 641.04L618.8 642.25L618.59 643.46L618.42 644.69L618.3 645.91L618.23 647.14L618.21 648.37L618.23 649.6L618.3 650.82L618.42 652.05L618.59 653.27L618.8 654.48L619.05 655.69L619.36 656.89L619.71 658.08L620.11 659.26L620.56 660.42L621.05 661.57L621.59 662.7L622.17 663.82L622.81 664.91L623.49 665.99L624.21 667.04L624.99 668.07L625.81 669.08L626.68 670.06L627.59 671.01L676.97 720.4L677.93 721.31L678.91 722.18L679.91 723L680.94 723.78L682 724.5L683.07 725.18L684.17 725.82L685.29 726.4L686.42 726.94L687.57 727.43L688.73 727.88L689.91 728.28L691.1 728.63L692.29 728.93L693.5 729.19L694.72 729.4L695.94 729.57L697.16 729.68L698.39 729.75L699.62 729.78L700.85 729.75L702.07 729.68L703.3 729.57L704.52 729.4L705.73 729.19L706.94 728.93L708.14 728.63L709.33 728.27L710.5 727.88L711.67 727.43L712.82 726.94L713.95 726.4L715.06 725.81L716.16 725.18L717.24 724.5L718.29 723.77L719.32 722.99L720.33 722.17L721.31 721.3L722.26 720.39L723.17 719.44L724.04 718.46L724.86 717.45L725.64 716.42L726.36 715.37L727.04 714.29L727.68 713.19L728.26 712.08L728.8 710.94L729.29 709.8L729.74 708.63L730.14 707.46L730.49 706.27L730.79 705.07L731.05 703.86L731.26 702.65L731.43 701.43L731.55 700.2L731.62 698.97L731.64 697.75L731.62 696.52L731.55 695.29L731.43 694.06L731.27 692.84L731.05 691.63L730.8 690.42L730.49 689.22L730.14 688.04L729.74 686.86L729.3 685.69L728.8 684.55L728.26 683.41L727.68 682.3L727.05 681.2L726.37 680.12L725.64 679.07L724.87 678.04L724.04 677.03L723.18 676.05L722.26 675.1L672.88 625.72L671.93 624.81L670.95 623.94L669.94 623.12L668.91 622.34L667.86 621.62L666.78 620.94L665.69 620.3L664.57 619.72L663.44 619.18L662.29 618.69L661.13 618.24L659.95 617.84L658.76 617.49L657.56 617.18L656.35 616.93L655.14 616.72L653.92 616.55L652.69 616.43L651.47 616.36L650.24 616.34L649.01 616.36L647.78 616.43ZM461.21 351.77L458.42 351.94L455.64 352.19L452.85 352.5L450.07 352.89L447.3 353.34L444.53 353.87L441.78 354.46L439.03 355.12L436.3 355.86L433.57 356.66L430.87 357.53L428.18 358.48L425.5 359.49L422.84 360.58L421.33 361.23L419.82 361.91L418.33 362.61L416.85 363.32L415.38 364.06L413.92 364.82L412.48 365.6L411.05 366.4L409.63 367.22L408.22 368.06L406.82 368.92L405.44 369.8L404.08 370.7L402.72 371.62L401.38 372.56L400.05 373.51L398.74 374.49L397.44 375.48L396.16 376.49L394.89 377.52L393.64 378.57L392.4 379.64L391.17 380.72L389.97 381.82L388.77 382.94L387.6 384.08L386.44 385.23L385.29 386.4L384.16 387.59L383.05 388.79L381.96 390.01L380.88 391.25L379.82 392.5L378.78 393.77L377.75 395.06L376.75 396.36L375.76 397.67L374.79 399.01L373.84 400.35L372.9 401.71L371.33 404.11L369.82 406.54L368.37 409L366.99 411.49L365.68 414.01L364.43 416.55L363.25 419.11L362.14 421.7L361.09 424.32L360.11 426.95L359.2 429.6L358.36 432.28L357.58 434.96L356.87 437.67L356.22 440.39L355.65 443.12L355.14 445.86L354.7 448.62L354.33 451.38L354.02 454.15L353.79 456.93L353.62 459.71L353.52 462.5L353.49 465.29L353.53 468.08L353.64 470.87L353.81 473.67L354.06 476.45L354.37 479.24L354.76 482.02L355.21 484.79L355.74 487.56L356.33 490.31L356.99 493.06L357.73 495.79L358.53 498.51L359.4 501.22L360.35 503.91L361.36 506.59L362.45 509.25L363.1 510.76L363.78 512.26L364.48 513.76L365.19 515.24L365.93 516.71L366.69 518.16L367.47 519.61L368.27 521.04L369.09 522.46L369.93 523.87L370.79 525.26L371.67 526.65L372.57 528.01L373.49 529.37L374.43 530.71L375.38 532.03L376.36 533.35L377.35 534.65L378.36 535.93L379.39 537.2L380.44 538.45L381.51 539.69L382.59 540.92L383.69 542.12L384.81 543.32L385.95 544.49L387.1 545.65L388.27 546.8L389.46 547.92L390.66 549.04L391.89 550.13L393.12 551.21L394.38 552.27L395.64 553.31L396.93 554.33L398.23 555.34L399.55 556.33L400.88 557.3L402.22 558.25L403.58 559.18L405.98 560.76L408.41 562.27L410.87 563.72L413.36 565.1L415.88 566.41L418.42 567.66L420.99 568.84L423.58 569.95L426.19 571L428.82 571.98L431.47 572.89L434.15 573.73L436.83 574.51L439.54 575.22L442.26 575.87L444.99 576.44L447.73 576.95L450.49 577.39L453.25 577.76L456.02 578.07L458.8 578.3L461.58 578.47L464.37 578.57L467.16 578.6L469.95 578.56L472.75 578.45L475.54 578.28L478.32 578.03L481.11 577.71L483.89 577.33L486.66 576.88L489.43 576.35L492.18 575.76L494.93 575.1L497.66 574.36L500.38 573.56L503.09 572.69L505.78 571.74L508.46 570.73L511.12 569.64L512.63 568.99L514.14 568.31L515.63 567.61L517.11 566.89L518.58 566.16L520.04 565.4L521.48 564.62L522.91 563.82L524.33 562.99L525.74 562.15L527.13 561.29L528.52 560.42L529.88 559.52L531.24 558.6L532.58 557.66L533.91 556.71L535.22 555.73L536.52 554.74L537.8 553.72L539.07 552.69L540.32 551.65L541.56 550.58L542.79 549.5L545.19 547.28L546.36 546.14L547.52 544.99L548.67 543.82L549.8 542.63L550.91 541.42L552 540.2L553.08 538.97L554.14 537.71L555.18 536.44L556.2 535.16L557.21 533.86L558.2 532.54L559.17 531.21L560.12 529.87L561.06 528.5L562.63 526.11L564.14 523.68L565.59 521.22L566.97 518.73L568.28 516.21L569.53 513.67L570.71 511.1L571.82 508.51L572.87 505.9L573.85 503.27L574.76 500.61L575.6 497.94L576.38 495.25L577.09 492.55L577.74 489.83L578.31 487.1L578.82 484.36L579.26 481.6L579.63 478.84L579.94 476.07L580.17 473.29L580.34 470.5L580.44 467.72L580.47 464.93L580.43 462.14L580.32 459.34L580.15 456.55L579.9 453.76L579.59 450.98L579.2 448.2L578.75 445.43L578.22 442.66L577.63 439.91L576.97 437.16L576.23 434.43L575.43 431.7L574.56 429L573.61 426.3L572.6 423.63L571.51 420.97L570.86 419.46L570.18 417.95L569.48 416.46L568.76 414.98L568.03 413.51L567.27 412.05L566.49 410.61L565.69 409.18L564.87 407.76L564.03 406.35L563.17 404.95L562.29 403.57L561.39 402.2L560.47 400.85L559.53 399.51L558.58 398.18L557.6 396.87L556.61 395.57L555.6 394.29L554.57 393.02L553.52 391.77L552.45 390.53L551.37 389.3L550.27 388.09L549.15 386.9L548.01 385.73L546.86 384.56L545.69 383.42L544.5 382.29L543.29 381.18L542.07 380.09L540.84 379.01L539.58 377.95L538.32 376.91L537.03 375.88L535.73 374.88L534.41 373.89L533.08 372.92L531.74 371.97L530.38 371.03L527.98 369.46L525.55 367.95L523.09 366.5L520.6 365.12L518.08 363.81L515.54 362.56L512.97 361.38L510.38 360.27L507.77 359.22L505.14 358.24L502.48 357.33L499.81 356.48L497.12 355.71L494.42 355L491.7 354.35L488.97 353.78L486.23 353.27L483.47 352.83L480.71 352.46L477.94 352.15L475.16 351.92L472.38 351.75L469.59 351.65L466.8 351.62L464.01 351.66L461.21 351.77Z" id="c1nCsG2RTP"></path>
  </defs>
  <g>
    <g>
      <g>
        <use xlink:href="#a1NsGMDH9W" opacity="1" fill="url(#gradientf18yfxQNS9)"></use>
        <g>
          <use xlink:href="#a1NsGMDH9W" opacity="1" fill-opacity="0" stroke="#000000" stroke-width="1" stroke-opacity="0"></use>
        </g>
      </g>
      <g>
        <use xlink:href="#c7zZBcEbOc" opacity="1" fill="#ffffff" fill-opacity="1"></use>
        <g>
          <use xlink:href="#c7zZBcEbOc" opacity="1" fill-opacity="0" stroke="#000000" stroke-width="1" stroke-opacity="0"></use>
        </g>
      </g>
      <g>
        <use xlink:href="#c1nCsG2RTP" opacity="1" fill="#ffffff" fill-opacity="1"></use>
        <g>
          <use xlink:href="#c1nCsG2RTP" opacity="1" fill-opacity="0" stroke="#000000" stroke-width="1" stroke-opacity="0"></use>
        </g>
      </g>
    </g>
  </g>
</svg>
